<?xml version="1.0" encoding="UTF-8" standalone="no"?>
<!-- Created with Inkscape (http://www.inkscape.org/) -->

<svg
   width="1080"
   height="1080"
   viewBox="0 0 1080 1080"
   version="1.1"
   id="svg1"
   inkscape:version="1.4 (86a8ad7, 2024-10-11)"
   sodipodi:docname="m.svg"
   xmlns:inkscape="http://www.inkscape.org/namespaces/inkscape"
   xmlns:sodipodi="http://sodipodi.sourceforge.net/DTD/sodipodi-0.dtd"
   xmlns="http://www.w3.org/2000/svg"
   xmlns:svg="http://www.w3.org/2000/svg">
  <sodipodi:namedview
     id="namedview1"
     pagecolor="#ffffff"
     bordercolor="#000000"
     borderopacity="0.25"
     inkscape:showpageshadow="2"
     inkscape:pageopacity="0.0"
     inkscape:pagecheckerboard="0"
     inkscape:deskcolor="#d1d1d1"
     inkscape:document-units="px"
     inkscape:zoom="0.48584289"
     inkscape:cx="1085.7419"
     inkscape:cy="420.91796"
     inkscape:window-width="1842"
     inkscape:window-height="1057"
     inkscape:window-x="70"
     inkscape:window-y="-8"
     inkscape:window-maximized="1"
     inkscape:current-layer="layer2" />
  <defs
     id="defs1" />
  <g
     inkscape:label="Layer 1"
     inkscape:groupmode="layer"
     id="layer1"
     style="display:inline">
    <rect
       style="font-size:466.667px;fill:#ffffff;fill-opacity:1"
       id="rect1"
       width="1090.8876"
       height="1103.2373"
       x="-6.1748314"
       y="-12.349673" />
  </g>
  <g
     inkscape:groupmode="layer"
     id="layer2"
     inkscape:label="Layer 2">
    <g
       id="text1"
       style="font-size:466.667px"
       aria-label="Morpha"
       transform="matrix(0.84310768,0,0,0.84310768,79.114518,99.288333)">
      <path
         style="font-weight:bold;font-family:Inter;-inkscape-font-specification:'Inter Bold';fill:#5539cc;stroke-width:2.82856"
         d="M 18.855046,1026.4154 V 66.064709 H 308.24929 L 466.8038,513.36893 c 6.4453,20.19531 14.17966,45.11716 23.20309,74.76555 9.02344,29.21872 18.26171,59.94136 27.71483,92.16786 9.4531,31.79686 18.04685,62.30465 25.78122,91.5234 8.16407,29.21866 14.8242,53.49603 19.98047,72.8319 h -49.62887 c 5.15624,-19.33587 11.60157,-43.61324 19.3359,-72.8319 8.16407,-29.21875 16.97265,-59.72654 26.42574,-91.5234 9.45317,-32.2265 18.47655,-62.94914 27.07034,-92.16786 9.02343,-29.64839 16.54289,-54.57024 22.55851,-74.76555 L 765.86613,66.064709 H 1055.2602 V 1026.4154 H 860.61206 V 570.08763 c 0,-21.48435 0.42961,-47.05072 1.28911,-76.69914 0.85932,-29.64841 1.71873,-61.23039 2.57804,-94.74599 0.85942,-33.94526 1.71873,-68.1054 2.57814,-102.48037 0.85941,-34.80465 1.50387,-67.67571 1.93358,-98.61318 h 23.84769 c -9.88284,33.94528 -20.19538,68.74996 -30.93745,104.41396 -10.31264,35.66401 -20.41015,70.25381 -30.29308,103.76941 -9.88275,33.5156 -19.33588,64.45308 -28.35922,92.81244 -8.59382,27.92962 -16.11328,51.77726 -22.55867,71.54287 L 618.26855,1026.4154 H 457.13584 L 292.78053,570.08763 c -6.4453,-19.76561 -14.17966,-43.61325 -23.20309,-71.54287 -9.02343,-28.35936 -18.6914,-59.29684 -29.00387,-92.81244 -9.88282,-33.5156 -20.41015,-68.1054 -31.58198,-103.76941 -10.74221,-35.664 -21.26954,-70.46868 -31.58204,-104.41396 h 28.35935 c 0.42971,30.93747 1.07424,63.80853 1.93362,98.61318 0.85936,34.37497 1.71875,68.53511 2.57813,102.48037 0.85933,33.5156 1.50387,65.09758 1.93357,94.74599 0.85938,29.64842 1.28906,55.21479 1.28906,76.69914 v 456.32777 z"
         id="path1"
         sodipodi:nodetypes="cccccccccccccccccsscccccscccccccccccccscc" />
    </g>
    <text
       xml:space="preserve"
       style="font-style:normal;font-variant:normal;font-weight:bold;font-stretch:normal;font-size:466.667px;font-family:Inter;-inkscape-font-specification:'Inter Bold';text-align:start;writing-mode:lr-tb;direction:ltr;text-anchor:start;display:inline;fill:#5539cc;fill-opacity:1"
       x="1771.4349"
       y="845.29639"
       id="text4"><tspan
         sodipodi:role="line"
         id="tspan4"
         x="0"
         y="0" /></text>
  </g>
</svg>
