<?xml version="1.0" encoding="UTF-8" standalone="no"?>
<!-- Created with Inkscape (http://www.inkscape.org/) -->

<svg
   width="1920"
   height="1080"
   viewBox="0 0 1920 1080"
   version="1.1"
   id="svg1"
   inkscape:version="1.4 (86a8ad7, 2024-10-11)"
   sodipodi:docname="morpha.svg"
   xmlns:inkscape="http://www.inkscape.org/namespaces/inkscape"
   xmlns:sodipodi="http://sodipodi.sourceforge.net/DTD/sodipodi-0.dtd"
   xmlns="http://www.w3.org/2000/svg"
   xmlns:svg="http://www.w3.org/2000/svg">
  <sodipodi:namedview
     id="namedview1"
     pagecolor="#ffffff"
     bordercolor="#000000"
     borderopacity="0.25"
     inkscape:showpageshadow="2"
     inkscape:pageopacity="0.0"
     inkscape:pagecheckerboard="0"
     inkscape:deskcolor="#d1d1d1"
     inkscape:document-units="px"
     inkscape:zoom="0.48584289"
     inkscape:cx="1085.7419"
     inkscape:cy="410.62657"
     inkscape:window-width="1842"
     inkscape:window-height="1057"
     inkscape:window-x="70"
     inkscape:window-y="-8"
     inkscape:window-maximized="1"
     inkscape:current-layer="layer1" />
  <defs
     id="defs1" />
  <g
     inkscape:label="Layer 1"
     inkscape:groupmode="layer"
     id="layer1">
    <g
       id="text1"
       style="font-size:466.667px"
       aria-label="Morpha">
      <path
         style="font-weight:bold;font-family:Inter;-inkscape-font-specification:'Inter Bold';fill:#5539cc"
         d="M 144.41004,716.38324 V 376.86477 h 102.31127 l 56.05472,158.13813 q 3.41797,10.70965 8.20313,26.43231 4.78516,15.49481 9.79819,32.58466 5.01302,16.86199 9.11459,32.3568 4.32943,15.4948 7.0638,25.74871 h -17.54558 q 2.73438,-10.25391 6.83594,-25.74871 4.32943,-15.49481 9.34246,-32.3568 5.01302,-17.08985 9.57031,-32.58466 4.78516,-15.72266 7.97527,-26.43231 L 408.50527,376.86477 H 510.81654 V 716.38324 H 442.00139 V 555.055 q 0,-11.39323 0.45573,-27.1159 0.45573,-15.72267 0.91146,-33.49612 0.45573,-18.00131 0.91146,-36.23049 0.45573,-18.45705 0.68359,-34.86331 h 8.431 q -5.24089,18.00132 -10.93751,36.91409 -5.46875,18.91277 -10.70964,36.68622 -5.24089,17.77345 -10.02605,32.81253 -4.5573,14.8112 -7.97527,25.29298 L 356.32425,716.38324 H 299.35806 L 241.25255,555.055 q -3.41797,-10.48178 -8.20313,-25.29298 -4.78516,-15.03908 -10.25391,-32.81253 -5.24089,-17.77345 -11.16537,-36.68622 -5.69662,-18.91277 -11.16538,-36.91409 h 10.02605 q 0.22787,16.40626 0.6836,34.86331 0.45573,18.22918 0.91146,36.23049 0.45572,17.77345 0.68359,33.49612 0.45573,15.72267 0.45573,27.1159 v 161.32824 z m 527.279,5.46875 q -36.23049,0 -63.80212,-15.72266 -27.57164,-15.72267 -43.06644,-43.9779 -15.26694,-28.25523 -15.26694,-65.85291 0,-37.82555 15.26694,-66.08077 15.4948,-28.25523 43.06644,-43.9779 27.57163,-15.95053 63.80212,-15.95053 36.68623,0 64.03,15.95053 27.57163,15.72267 42.83857,43.9779 15.4948,28.25522 15.4948,66.08077 0,37.59768 -15.4948,65.85291 -15.26694,28.25523 -42.83857,43.9779 -27.34377,15.72266 -64.03,15.72266 z m 0,-54.45967 q 16.40627,0 28.71096,-8.431 12.3047,-8.65886 19.14064,-24.60939 6.83594,-15.95053 6.83594,-38.05341 0,-22.55861 -6.83594,-38.50914 -6.83594,-15.95053 -19.14064,-24.38153 -12.30469,-8.65886 -28.71096,-8.65886 -16.17839,0 -28.48309,8.65886 -12.30469,8.431 -19.14064,24.38153 -6.83594,15.95053 -6.83594,38.50914 0,22.33075 6.83594,38.28128 6.83595,15.72266 19.14064,24.38152 12.3047,8.431 28.48309,8.431 z m 159.27743,48.99092 V 475.75807 h 64.71359 v 41.01566 h 0.68359 q 6.60808,-21.64716 20.7357,-32.12893 14.12761,-10.48178 38.05341,-10.48178 5.92448,0 10.70964,0.22786 5.01302,0 9.11459,0.22787 v 57.19405 q -3.64584,-0.22787 -12.07683,-0.6836 -8.20313,-0.45573 -16.86199,-0.45573 -13.67189,0 -24.60939,6.38022 -10.93751,6.15235 -17.08986,18.45704 -6.15235,12.3047 -6.15235,30.53388 v 130.33863 z"
         id="path1" />
      <path
         style="font-weight:bold;font-family:Inter;-inkscape-font-specification:'Inter Bold'"
         d="M 1005.0552,811.6307 V 475.75807 h 66.3086 v 32.58466 h 0.6836 q 7.5195,-12.53256 18.0013,-20.73569 10.7096,-8.431 24.1537,-12.53256 13.6719,-4.32943 29.1667,-4.32943 30.7617,0 54.0039,15.95053 23.4701,15.72267 36.4584,43.97789 13.2161,28.02737 13.2161,65.16932 0,37.59768 -12.9883,65.85291 -12.9883,28.25523 -36.2305,43.9779 -23.2422,15.72266 -54.9154,15.72266 -15.7226,0 -29.1667,-4.55729 -13.2161,-4.5573 -23.6979,-13.67189 -10.2539,-9.11458 -17.0899,-22.78647 h -0.6835 V 811.6307 Z m 120.5404,-144.92197 q 16.4063,0 28.2552,-8.20313 12.0769,-8.431 18.6849,-24.15367 6.836,-15.95053 6.836,-38.50914 0,-22.55861 -6.836,-38.28128 -6.608,-15.72266 -18.6849,-24.15366 -11.8489,-8.43099 -28.2552,-8.43099 -16.862,0 -29.8503,8.88672 -12.7604,8.65886 -19.8242,24.60939 -6.836,15.72267 -6.836,37.36982 0,21.41929 6.836,37.36982 7.0638,15.95053 19.8242,24.83726 12.9883,8.65886 29.8503,8.65886 z m 225.5861,-84.08209 v 133.7566 h -67.2201 V 376.86477 h 67.2201 v 161.55611 h -12.5326 q 11.3933,-31.90107 32.5847,-49.67452 21.1914,-18.00131 54.0039,-18.00131 25.7487,0 44.6615,11.16537 18.9128,10.93751 29.1667,32.12893 10.4818,21.19142 10.4818,51.7253 v 150.61859 h -66.9922 v -138.3139 q 0,-24.15366 -11.6212,-36.68622 -11.3932,-12.76043 -32.5846,-12.76043 -13.8998,0 -24.6094,5.69662 -10.7096,5.69662 -16.6341,17.77345 -5.9245,11.84897 -5.9245,30.53388 z"
         id="path2" />
      <path
         style="font-weight:bold;font-family:Inter;-inkscape-font-specification:'Inter Bold';fill:#5539cc"
         d="m 1630.7717,720.48481 q -23.9258,0 -42.6107,-7.97527 -18.6849,-7.97527 -29.3945,-23.9258 -10.7097,-16.1784 -10.7097,-40.10419 0,-20.27997 7.5196,-33.72399 7.5195,-13.67188 20.5078,-21.87501 13.2162,-8.431 30.0781,-12.76043 17.0899,-4.32943 35.7748,-5.92448 22.1029,-2.27865 35.0912,-4.32943 12.9883,-2.05078 18.6849,-5.92448 5.6966,-3.8737 5.6966,-11.6211 v -1.59506 q 0,-8.88672 -4.7851,-15.4948 -4.7852,-6.83594 -13.6719,-10.70964 -8.6589,-3.8737 -20.9636,-3.8737 -12.3047,0 -21.875,3.8737 -9.3425,3.8737 -14.8112,10.9375 -5.4688,7.06381 -6.3802,16.40627 h -63.1186 q 1.5951,-24.83726 14.5834,-43.06644 13.2161,-18.22918 36.9141,-28.02736 23.6979,-10.02605 56.7383,-10.02605 24.6094,0 43.9779,5.69662 19.3685,5.46875 32.5846,16.17839 13.4441,10.70965 20.28,25.97658 6.836,15.26694 6.836,34.63544 v 163.15116 h -65.6251 v -33.95185 h -0.9115 q -6.3802,11.84897 -15.7226,20.27997 -9.3425,8.43099 -22.7865,13.21615 -13.444,4.5573 -31.9011,4.5573 z m 18.6849,-46.71228 q 16.1784,0 27.7995,-5.92448 11.849,-5.92448 18.2292,-16.1784 6.3802,-10.25391 6.3802,-23.2422 v -24.15366 q -2.9622,1.59505 -7.7474,3.1901 -4.7851,1.36719 -11.1653,2.73438 -6.3802,1.13932 -13.8998,2.50651 -7.5195,1.36719 -15.4948,2.50651 -11.6211,1.82292 -20.9635,5.69662 -9.3425,3.64584 -14.8112,10.02605 -5.4688,6.15235 -5.4688,15.72267 0,8.43099 4.5573,14.58334 4.5573,6.15235 12.9883,9.34246 8.431,3.1901 19.5963,3.1901 z"
         id="path3" />
    </g>
    <text
       xml:space="preserve"
       style="font-style:normal;font-variant:normal;font-weight:bold;font-stretch:normal;font-size:466.667px;font-family:Inter;-inkscape-font-specification:'Inter Bold';text-align:start;writing-mode:lr-tb;direction:ltr;text-anchor:start;fill:#5539cc;fill-opacity:1"
       x="1771.4349"
       y="845.29639"
       id="text4"><tspan
         sodipodi:role="line"
         id="tspan4" /></text>
    <path
       sodipodi:type="star"
       style="fill:#000000;fill-opacity:1"
       id="path4"
       inkscape:flatsided="false"
       sodipodi:sides="3"
       sodipodi:cx="829.59094"
       sodipodi:cy="206.67003"
       sodipodi:r1="135.04095"
       sodipodi:r2="67.520477"
       sodipodi:arg1="0.52359878"
       sodipodi:arg2="1.5707963"
       inkscape:rounded="0"
       inkscape:randomized="0"
       d="m 946.53984,274.19051 -116.9489,0 -116.9489,0 58.47445,-101.28072 58.47445,-101.280716 58.47445,101.280716 z"
       inkscape:transform-center-y="-25.755416"
       transform="matrix(0.7013213,0,0,0.76289193,735.66713,190.8437)"
       inkscape:transform-center-x="-5.8860956e-06" />
    <path
       sodipodi:type="star"
       style="fill:#000000;fill-opacity:1"
       id="path4-8"
       inkscape:flatsided="false"
       sodipodi:sides="3"
       sodipodi:cx="829.59094"
       sodipodi:cy="206.67003"
       sodipodi:r1="135.04095"
       sodipodi:r2="67.520477"
       sodipodi:arg1="0.52359878"
       sodipodi:arg2="1.5707963"
       inkscape:rounded="0"
       inkscape:randomized="0"
       d="m 946.53984,274.19051 -116.9489,0 -116.9489,0 58.47445,-101.28072 58.47445,-101.280716 58.47445,101.280716 z"
       inkscape:transform-center-y="25.755417"
       transform="matrix(0.7013213,0,0,-0.76289193,456.85991,998.9437)"
       inkscape:transform-center-x="3.4113904e-05" />
  </g>
</svg>
